<svg width="375" height="200" viewBox="0 0 375 200" fill="none" xmlns="http://www.w3.org/2000/svg">
<rect width="375" height="200" fill="#6696AE" fill-opacity="0.95"/>
<g filter="url(#filter0_d_42_2)">
<path d="M78.2344 77.25V100H74.3125V77.25H78.2344ZM87.5156 87.2031V90.3125H77.2344V87.2031H87.5156ZM88.8125 77.25V80.375H77.2344V77.25H88.8125ZM93.5375 77.25H101.584C103.314 77.25 104.788 77.5104 106.006 78.0312C107.225 78.5521 108.157 79.3229 108.803 80.3438C109.459 81.3542 109.788 82.6042 109.788 84.0938C109.788 85.2292 109.579 86.2292 109.163 87.0938C108.746 87.9583 108.157 88.6875 107.397 89.2812C106.636 89.8646 105.73 90.3177 104.678 90.6406L103.491 91.2188H96.2563L96.225 88.1094H101.647C102.584 88.1094 103.366 87.9427 103.991 87.6094C104.616 87.276 105.084 86.8229 105.397 86.25C105.72 85.6667 105.881 85.0104 105.881 84.2812C105.881 83.4896 105.725 82.8021 105.413 82.2188C105.11 81.625 104.642 81.1719 104.006 80.8594C103.371 80.5365 102.564 80.375 101.584 80.375H97.4594V100H93.5375V77.25ZM106.522 100L101.178 89.7812L105.288 89.7656L110.709 99.7969V100H106.522ZM130.184 96.8906V100H118.106V96.8906H130.184ZM119.216 77.25V100H115.294V77.25H119.216ZM128.606 86.75V89.8125H118.106V86.75H128.606ZM130.106 77.25V80.375H118.106V77.25H130.106ZM144.659 77.25V100H140.769V77.25H144.659ZM151.8 77.25V80.375H133.691V77.25H151.8ZM171.291 96.8906V100H159.213V96.8906H171.291ZM160.322 77.25V100H156.4V77.25H160.322ZM169.713 86.75V89.8125H159.213V86.75H169.713ZM171.213 77.25V80.375H159.213V77.25H171.213ZM203.131 88.375V97.0625C202.808 97.4896 202.303 97.9583 201.616 98.4688C200.939 98.9688 200.037 99.401 198.912 99.7656C197.787 100.13 196.386 100.312 194.709 100.312C193.282 100.312 191.975 100.073 190.787 99.5938C189.6 99.1042 188.574 98.3906 187.709 97.4531C186.855 96.5156 186.194 95.375 185.725 94.0312C185.256 92.6771 185.022 91.1354 185.022 89.4062V87.8281C185.022 86.1094 185.235 84.5781 185.662 83.2344C186.1 81.8802 186.725 80.7344 187.537 79.7969C188.35 78.8594 189.329 78.151 190.475 77.6719C191.631 77.1823 192.939 76.9375 194.397 76.9375C196.261 76.9375 197.803 77.25 199.022 77.875C200.251 78.4896 201.199 79.3438 201.866 80.4375C202.532 81.5312 202.954 82.7812 203.131 84.1875H199.287C199.162 83.3958 198.918 82.6875 198.553 82.0625C198.199 81.4375 197.689 80.9479 197.022 80.5938C196.366 80.2292 195.511 80.0469 194.459 80.0469C193.553 80.0469 192.756 80.2188 192.069 80.5625C191.381 80.9062 190.808 81.4115 190.35 82.0781C189.902 82.7448 189.564 83.5573 189.334 84.5156C189.105 85.474 188.991 86.5677 188.991 87.7969V89.4062C188.991 90.6562 189.121 91.7656 189.381 92.7344C189.652 93.7031 190.037 94.5208 190.537 95.1875C191.048 95.8542 191.668 96.3594 192.397 96.7031C193.126 97.0365 193.949 97.2031 194.866 97.2031C195.761 97.2031 196.496 97.1302 197.069 96.9844C197.642 96.8281 198.095 96.6458 198.428 96.4375C198.772 96.2188 199.037 96.0104 199.225 95.8125V91.2969H194.491V88.375H203.131ZM209.075 77.25H217.122C218.851 77.25 220.325 77.5104 221.544 78.0312C222.762 78.5521 223.695 79.3229 224.341 80.3438C224.997 81.3542 225.325 82.6042 225.325 84.0938C225.325 85.2292 225.117 86.2292 224.7 87.0938C224.283 87.9583 223.695 88.6875 222.934 89.2812C222.174 89.8646 221.268 90.3177 220.216 90.6406L219.028 91.2188H211.794L211.762 88.1094H217.184C218.122 88.1094 218.903 87.9427 219.528 87.6094C220.153 87.276 220.622 86.8229 220.934 86.25C221.257 85.6667 221.419 85.0104 221.419 84.2812C221.419 83.4896 221.262 82.8021 220.95 82.2188C220.648 81.625 220.179 81.1719 219.544 80.8594C218.908 80.5365 218.101 80.375 217.122 80.375H212.997V100H209.075V77.25ZM222.059 100L216.716 89.7812L220.825 89.7656L226.247 99.7969V100H222.059ZM239.691 80.2812L232.894 100H228.784L237.347 77.25H239.972L239.691 80.2812ZM245.378 100L238.566 80.2812L238.269 77.25H240.909L249.503 100H245.378ZM245.05 91.5625V94.6719H232.675V91.5625H245.05ZM237.284 75.8438L240.331 71.1406H244.581L240.331 75.8438H237.284ZM261.041 77.25V100H257.15V77.25H261.041ZM268.181 77.25V80.375H250.072V77.25H268.181ZM276.969 77.25V100H273.047V77.25H276.969ZM295.413 94.1406C295.413 93.6719 295.34 93.2552 295.194 92.8906C295.058 92.526 294.814 92.1927 294.459 91.8906C294.105 91.5885 293.605 91.2969 292.959 91.0156C292.324 90.724 291.511 90.4271 290.522 90.125C289.439 89.7917 288.439 89.4219 287.522 89.0156C286.616 88.599 285.824 88.1198 285.147 87.5781C284.47 87.026 283.944 86.3958 283.569 85.6875C283.194 84.9688 283.006 84.1406 283.006 83.2031C283.006 82.276 283.199 81.4323 283.584 80.6719C283.98 79.9115 284.538 79.2552 285.256 78.7031C285.985 78.1406 286.845 77.7083 287.834 77.4062C288.824 77.0938 289.918 76.9375 291.116 76.9375C292.803 76.9375 294.256 77.25 295.475 77.875C296.704 78.5 297.647 79.3385 298.303 80.3906C298.97 81.4427 299.303 82.6042 299.303 83.875H295.413C295.413 83.125 295.251 82.4635 294.928 81.8906C294.616 81.3073 294.136 80.849 293.491 80.5156C292.855 80.1823 292.048 80.0156 291.069 80.0156C290.142 80.0156 289.371 80.1562 288.756 80.4375C288.142 80.7188 287.683 81.099 287.381 81.5781C287.079 82.0573 286.928 82.599 286.928 83.2031C286.928 83.6302 287.027 84.0208 287.225 84.375C287.423 84.7188 287.725 85.0417 288.131 85.3438C288.538 85.6354 289.048 85.9115 289.663 86.1719C290.277 86.4323 291.001 86.6823 291.834 86.9219C293.095 87.2969 294.194 87.7135 295.131 88.1719C296.069 88.6198 296.85 89.1302 297.475 89.7031C298.1 90.276 298.569 90.9271 298.881 91.6562C299.194 92.375 299.35 93.1927 299.35 94.1094C299.35 95.0677 299.157 95.9323 298.772 96.7031C298.386 97.4635 297.834 98.1146 297.116 98.6562C296.407 99.1875 295.553 99.599 294.553 99.8906C293.564 100.172 292.459 100.312 291.241 100.312C290.147 100.312 289.069 100.167 288.006 99.875C286.954 99.5833 285.996 99.1406 285.131 98.5469C284.267 97.9427 283.579 97.1927 283.069 96.2969C282.558 95.3906 282.303 94.3333 282.303 93.125H286.225C286.225 93.8646 286.35 94.4948 286.6 95.0156C286.86 95.5365 287.22 95.9635 287.678 96.2969C288.136 96.6198 288.668 96.8594 289.272 97.0156C289.886 97.1719 290.543 97.25 291.241 97.25C292.157 97.25 292.923 97.1198 293.538 96.8594C294.163 96.599 294.631 96.2344 294.944 95.7656C295.256 95.2969 295.413 94.7552 295.413 94.1406Z" fill="white"/>
</g>
<path d="M43.1445 121.879V129.438H41.7324V120.66H43.0332L43.1445 121.879ZM47.2754 123.771V123.895C47.2754 124.355 47.2207 124.783 47.1113 125.178C47.0059 125.568 46.8477 125.91 46.6367 126.203C46.4297 126.492 46.1738 126.717 45.8691 126.877C45.5645 127.037 45.2129 127.117 44.8145 127.117C44.4199 127.117 44.0742 127.045 43.7773 126.9C43.4844 126.752 43.2363 126.543 43.0332 126.273C42.8301 126.004 42.666 125.688 42.541 125.324C42.4199 124.957 42.334 124.555 42.2832 124.117V123.643C42.334 123.178 42.4199 122.756 42.541 122.377C42.666 121.998 42.8301 121.672 43.0332 121.398C43.2363 121.125 43.4844 120.914 43.7773 120.766C44.0703 120.617 44.4121 120.543 44.8027 120.543C45.2012 120.543 45.5547 120.621 45.8633 120.777C46.1719 120.93 46.4316 121.148 46.6426 121.434C46.8535 121.715 47.0117 122.055 47.1172 122.453C47.2227 122.848 47.2754 123.287 47.2754 123.771ZM45.8633 123.895V123.771C45.8633 123.479 45.8359 123.207 45.7812 122.957C45.7266 122.703 45.6406 122.48 45.5234 122.289C45.4062 122.098 45.2559 121.949 45.0723 121.844C44.8926 121.734 44.6758 121.68 44.4219 121.68C44.1719 121.68 43.957 121.723 43.7773 121.809C43.5977 121.891 43.4473 122.006 43.3262 122.154C43.2051 122.303 43.1113 122.477 43.0449 122.676C42.9785 122.871 42.9316 123.084 42.9043 123.314V124.451C42.9512 124.732 43.0312 124.99 43.1445 125.225C43.2578 125.459 43.418 125.646 43.625 125.787C43.8359 125.924 44.1055 125.992 44.4336 125.992C44.6875 125.992 44.9043 125.938 45.084 125.828C45.2637 125.719 45.4102 125.568 45.5234 125.377C45.6406 125.182 45.7266 124.957 45.7812 124.703C45.8359 124.449 45.8633 124.18 45.8633 123.895ZM52.6508 125.729V122.705C52.6508 122.479 52.6098 122.283 52.5277 122.119C52.4457 121.955 52.3207 121.828 52.1527 121.738C51.9887 121.648 51.7816 121.604 51.5316 121.604C51.3012 121.604 51.102 121.643 50.934 121.721C50.766 121.799 50.6352 121.904 50.5414 122.037C50.4477 122.17 50.4008 122.32 50.4008 122.488H48.9945C48.9945 122.238 49.0551 121.996 49.1762 121.762C49.2973 121.527 49.473 121.318 49.7035 121.135C49.934 120.951 50.2094 120.807 50.5297 120.701C50.85 120.596 51.2094 120.543 51.6078 120.543C52.0844 120.543 52.5062 120.623 52.8734 120.783C53.2445 120.943 53.5355 121.186 53.7465 121.51C53.9613 121.83 54.0687 122.232 54.0687 122.717V125.535C54.0687 125.824 54.0883 126.084 54.1273 126.314C54.1703 126.541 54.2309 126.738 54.309 126.906V127H52.8617C52.7953 126.848 52.7426 126.654 52.7035 126.42C52.6684 126.182 52.6508 125.951 52.6508 125.729ZM52.8559 123.145L52.8676 124.018H51.8539C51.5922 124.018 51.3617 124.043 51.1625 124.094C50.9633 124.141 50.7973 124.211 50.6645 124.305C50.5316 124.398 50.432 124.512 50.3656 124.645C50.2992 124.777 50.266 124.928 50.266 125.096C50.266 125.264 50.3051 125.418 50.3832 125.559C50.4613 125.695 50.5746 125.803 50.723 125.881C50.8754 125.959 51.059 125.998 51.2738 125.998C51.5629 125.998 51.8148 125.939 52.0297 125.822C52.2484 125.701 52.4203 125.555 52.5453 125.383C52.6703 125.207 52.7367 125.041 52.7445 124.885L53.2016 125.512C53.1547 125.672 53.0746 125.844 52.9613 126.027C52.848 126.211 52.6996 126.387 52.516 126.555C52.3363 126.719 52.1195 126.854 51.8656 126.959C51.6156 127.064 51.3266 127.117 50.9984 127.117C50.5844 127.117 50.2152 127.035 49.891 126.871C49.5668 126.703 49.3129 126.479 49.1293 126.197C48.9457 125.912 48.8539 125.59 48.8539 125.23C48.8539 124.895 48.9164 124.598 49.0414 124.34C49.1703 124.078 49.3578 123.859 49.6039 123.684C49.8539 123.508 50.1586 123.375 50.518 123.285C50.8773 123.191 51.2875 123.145 51.7484 123.145H52.8559ZM57.5633 121.867V127H56.1512V120.66H57.4988L57.5633 121.867ZM59.5027 120.619L59.491 121.932C59.4051 121.916 59.3113 121.904 59.2098 121.896C59.1121 121.889 59.0145 121.885 58.9168 121.885C58.6746 121.885 58.4617 121.92 58.2781 121.99C58.0945 122.057 57.9402 122.154 57.8152 122.283C57.6941 122.408 57.6004 122.561 57.534 122.74C57.4676 122.92 57.4285 123.121 57.4168 123.344L57.0945 123.367C57.0945 122.969 57.1336 122.6 57.2117 122.26C57.2898 121.92 57.407 121.621 57.5633 121.363C57.7234 121.105 57.9227 120.904 58.1609 120.76C58.4031 120.615 58.6824 120.543 58.9988 120.543C59.0848 120.543 59.1766 120.551 59.2742 120.566C59.3758 120.582 59.452 120.6 59.5027 120.619ZM64.3508 125.729V122.705C64.3508 122.479 64.3098 122.283 64.2277 122.119C64.1457 121.955 64.0207 121.828 63.8527 121.738C63.6887 121.648 63.4816 121.604 63.2316 121.604C63.0012 121.604 62.802 121.643 62.634 121.721C62.466 121.799 62.3352 121.904 62.2414 122.037C62.1477 122.17 62.1008 122.32 62.1008 122.488H60.6945C60.6945 122.238 60.7551 121.996 60.8762 121.762C60.9973 121.527 61.173 121.318 61.4035 121.135C61.634 120.951 61.9094 120.807 62.2297 120.701C62.55 120.596 62.9094 120.543 63.3078 120.543C63.7844 120.543 64.2062 120.623 64.5734 120.783C64.9445 120.943 65.2355 121.186 65.4465 121.51C65.6613 121.83 65.7687 122.232 65.7687 122.717V125.535C65.7687 125.824 65.7883 126.084 65.8273 126.314C65.8703 126.541 65.9309 126.738 66.009 126.906V127H64.5617C64.4953 126.848 64.4426 126.654 64.4035 126.42C64.3684 126.182 64.3508 125.951 64.3508 125.729ZM64.5559 123.145L64.5676 124.018H63.5539C63.2922 124.018 63.0617 124.043 62.8625 124.094C62.6633 124.141 62.4973 124.211 62.3645 124.305C62.2316 124.398 62.132 124.512 62.0656 124.645C61.9992 124.777 61.966 124.928 61.966 125.096C61.966 125.264 62.0051 125.418 62.0832 125.559C62.1613 125.695 62.2746 125.803 62.423 125.881C62.5754 125.959 62.759 125.998 62.9738 125.998C63.2629 125.998 63.5148 125.939 63.7297 125.822C63.9484 125.701 64.1203 125.555 64.2453 125.383C64.3703 125.207 64.4367 125.041 64.4445 124.885L64.9016 125.512C64.8547 125.672 64.7746 125.844 64.6613 126.027C64.548 126.211 64.3996 126.387 64.216 126.555C64.0363 126.719 63.8195 126.854 63.5656 126.959C63.3156 127.064 63.0266 127.117 62.6984 127.117C62.2844 127.117 61.9152 127.035 61.591 126.871C61.2668 126.703 61.0129 126.479 60.8293 126.197C60.6457 125.912 60.5539 125.59 60.5539 125.23C60.5539 124.895 60.6164 124.598 60.7414 124.34C60.8703 124.078 61.0578 123.859 61.3039 123.684C61.5539 123.508 61.8586 123.375 62.218 123.285C62.5773 123.191 62.9875 123.145 63.4484 123.145H64.5559ZM74.3398 120.66V121.691H70.7656V120.66H74.3398ZM71.7969 119.107H73.209V125.248C73.209 125.443 73.2363 125.594 73.291 125.699C73.3496 125.801 73.4297 125.869 73.5312 125.904C73.6328 125.939 73.752 125.957 73.8887 125.957C73.9863 125.957 74.0801 125.951 74.1699 125.939C74.2598 125.928 74.332 125.916 74.3867 125.904L74.3926 126.982C74.2754 127.018 74.1387 127.049 73.9824 127.076C73.8301 127.104 73.6543 127.117 73.4551 127.117C73.1309 127.117 72.8438 127.061 72.5938 126.947C72.3438 126.83 72.1484 126.641 72.0078 126.379C71.8672 126.117 71.7969 125.77 71.7969 125.336V119.107ZM75.6195 123.9V123.766C75.6195 123.309 75.6859 122.885 75.8187 122.494C75.9516 122.1 76.143 121.758 76.393 121.469C76.6469 121.176 76.9555 120.949 77.3187 120.789C77.6859 120.625 78.1 120.543 78.5609 120.543C79.0258 120.543 79.4398 120.625 79.8031 120.789C80.1703 120.949 80.4809 121.176 80.7348 121.469C80.9887 121.758 81.182 122.1 81.3148 122.494C81.4477 122.885 81.5141 123.309 81.5141 123.766V123.9C81.5141 124.357 81.4477 124.781 81.3148 125.172C81.182 125.562 80.9887 125.904 80.7348 126.197C80.4809 126.486 80.1723 126.713 79.809 126.877C79.4457 127.037 79.0336 127.117 78.5727 127.117C78.1078 127.117 77.6918 127.037 77.3246 126.877C76.9613 126.713 76.6527 126.486 76.3988 126.197C76.1449 125.904 75.9516 125.562 75.8187 125.172C75.6859 124.781 75.6195 124.357 75.6195 123.9ZM77.0316 123.766V123.9C77.0316 124.186 77.0609 124.455 77.1195 124.709C77.1781 124.963 77.2699 125.186 77.3949 125.377C77.5199 125.568 77.6801 125.719 77.8754 125.828C78.0707 125.938 78.3031 125.992 78.5727 125.992C78.8344 125.992 79.0609 125.938 79.2523 125.828C79.4477 125.719 79.6078 125.568 79.7328 125.377C79.8578 125.186 79.9496 124.963 80.0082 124.709C80.0707 124.455 80.102 124.186 80.102 123.9V123.766C80.102 123.484 80.0707 123.219 80.0082 122.969C79.9496 122.715 79.8559 122.49 79.727 122.295C79.602 122.1 79.4418 121.947 79.2465 121.838C79.0551 121.725 78.8266 121.668 78.5609 121.668C78.2953 121.668 78.0648 121.725 77.8695 121.838C77.6781 121.947 77.5199 122.1 77.3949 122.295C77.2699 122.49 77.1781 122.715 77.1195 122.969C77.0609 123.219 77.0316 123.484 77.0316 123.766ZM87.1648 125.688V118H88.5828V127H87.2996L87.1648 125.688ZM83.0398 123.9V123.777C83.0398 123.297 83.0965 122.859 83.2098 122.465C83.323 122.066 83.4871 121.725 83.702 121.439C83.9168 121.15 84.1785 120.93 84.4871 120.777C84.7957 120.621 85.1434 120.543 85.5301 120.543C85.9129 120.543 86.2488 120.617 86.5379 120.766C86.827 120.914 87.073 121.127 87.2762 121.404C87.4793 121.678 87.6414 122.006 87.7625 122.389C87.8836 122.768 87.9695 123.189 88.0203 123.654V124.047C87.9695 124.5 87.8836 124.914 87.7625 125.289C87.6414 125.664 87.4793 125.988 87.2762 126.262C87.073 126.535 86.825 126.746 86.532 126.895C86.243 127.043 85.9051 127.117 85.5184 127.117C85.1355 127.117 84.7898 127.037 84.4813 126.877C84.1766 126.717 83.9168 126.492 83.702 126.203C83.4871 125.914 83.323 125.574 83.2098 125.184C83.0965 124.789 83.0398 124.361 83.0398 123.9ZM84.452 123.777V123.9C84.452 124.189 84.4773 124.459 84.5281 124.709C84.5828 124.959 84.6668 125.18 84.7801 125.371C84.8934 125.559 85.0398 125.707 85.2195 125.816C85.4031 125.922 85.6219 125.975 85.8758 125.975C86.1961 125.975 86.4598 125.904 86.6668 125.764C86.8738 125.623 87.0359 125.434 87.1531 125.195C87.2742 124.953 87.3563 124.684 87.3992 124.387V123.326C87.3758 123.096 87.327 122.881 87.2527 122.682C87.1824 122.482 87.0867 122.309 86.9656 122.16C86.8445 122.008 86.6941 121.891 86.5145 121.809C86.3387 121.723 86.1297 121.68 85.8875 121.68C85.6297 121.68 85.4109 121.734 85.2313 121.844C85.0516 121.953 84.9031 122.104 84.7859 122.295C84.6727 122.486 84.5887 122.709 84.534 122.963C84.4793 123.217 84.452 123.488 84.452 123.777ZM90.3898 123.9V123.766C90.3898 123.309 90.4562 122.885 90.5891 122.494C90.7219 122.1 90.9133 121.758 91.1633 121.469C91.4172 121.176 91.7258 120.949 92.0891 120.789C92.4562 120.625 92.8703 120.543 93.3312 120.543C93.7961 120.543 94.2102 120.625 94.5734 120.789C94.9406 120.949 95.2512 121.176 95.5051 121.469C95.759 121.758 95.9523 122.1 96.0852 122.494C96.218 122.885 96.2844 123.309 96.2844 123.766V123.9C96.2844 124.357 96.218 124.781 96.0852 125.172C95.9523 125.562 95.759 125.904 95.5051 126.197C95.2512 126.486 94.9426 126.713 94.5793 126.877C94.216 127.037 93.8039 127.117 93.343 127.117C92.8781 127.117 92.4621 127.037 92.0949 126.877C91.7316 126.713 91.423 126.486 91.1691 126.197C90.9152 125.904 90.7219 125.562 90.5891 125.172C90.4562 124.781 90.3898 124.357 90.3898 123.9ZM91.802 123.766V123.9C91.802 124.186 91.8312 124.455 91.8898 124.709C91.9484 124.963 92.0402 125.186 92.1652 125.377C92.2902 125.568 92.4504 125.719 92.6457 125.828C92.841 125.938 93.0734 125.992 93.343 125.992C93.6047 125.992 93.8312 125.938 94.0227 125.828C94.218 125.719 94.3781 125.568 94.5031 125.377C94.6281 125.186 94.7199 124.963 94.7785 124.709C94.841 124.455 94.8723 124.186 94.8723 123.9V123.766C94.8723 123.484 94.841 123.219 94.7785 122.969C94.7199 122.715 94.6262 122.49 94.4973 122.295C94.3723 122.1 94.2121 121.947 94.0168 121.838C93.8254 121.725 93.5969 121.668 93.3312 121.668C93.0656 121.668 92.8352 121.725 92.6398 121.838C92.4484 121.947 92.2902 122.1 92.1652 122.295C92.0402 122.49 91.9484 122.715 91.8898 122.969C91.8312 123.219 91.802 123.484 91.802 123.766ZM101.387 123.9V123.766C101.387 123.309 101.453 122.885 101.586 122.494C101.719 122.1 101.91 121.758 102.16 121.469C102.414 121.176 102.723 120.949 103.086 120.789C103.453 120.625 103.867 120.543 104.328 120.543C104.793 120.543 105.207 120.625 105.57 120.789C105.938 120.949 106.248 121.176 106.502 121.469C106.756 121.758 106.949 122.1 107.082 122.494C107.215 122.885 107.281 123.309 107.281 123.766V123.9C107.281 124.357 107.215 124.781 107.082 125.172C106.949 125.562 106.756 125.904 106.502 126.197C106.248 126.486 105.939 126.713 105.576 126.877C105.213 127.037 104.801 127.117 104.34 127.117C103.875 127.117 103.459 127.037 103.092 126.877C102.729 126.713 102.42 126.486 102.166 126.197C101.912 125.904 101.719 125.562 101.586 125.172C101.453 124.781 101.387 124.357 101.387 123.9ZM102.799 123.766V123.9C102.799 124.186 102.828 124.455 102.887 124.709C102.945 124.963 103.037 125.186 103.162 125.377C103.287 125.568 103.447 125.719 103.643 125.828C103.838 125.938 104.07 125.992 104.34 125.992C104.602 125.992 104.828 125.938 105.02 125.828C105.215 125.719 105.375 125.568 105.5 125.377C105.625 125.186 105.717 124.963 105.775 124.709C105.838 124.455 105.869 124.186 105.869 123.9V123.766C105.869 123.484 105.838 123.219 105.775 122.969C105.717 122.715 105.623 122.49 105.494 122.295C105.369 122.1 105.209 121.947 105.014 121.838C104.822 121.725 104.594 121.668 104.328 121.668C104.062 121.668 103.832 121.725 103.637 121.838C103.445 121.947 103.287 122.1 103.162 122.295C103.037 122.49 102.945 122.715 102.887 122.969C102.828 123.219 102.799 123.484 102.799 123.766ZM115.993 123.145H113.819L113.807 122.072H115.706C116.026 122.072 116.298 122.025 116.52 121.932C116.747 121.834 116.919 121.695 117.036 121.516C117.153 121.332 117.212 121.111 117.212 120.854C117.212 120.568 117.157 120.336 117.048 120.156C116.938 119.977 116.77 119.846 116.544 119.764C116.321 119.682 116.036 119.641 115.688 119.641H114.264V127H112.794V118.469H115.688C116.157 118.469 116.575 118.514 116.942 118.604C117.313 118.693 117.628 118.834 117.886 119.025C118.147 119.213 118.345 119.451 118.477 119.74C118.614 120.029 118.682 120.373 118.682 120.771C118.682 121.123 118.598 121.445 118.43 121.738C118.262 122.027 118.014 122.264 117.686 122.447C117.358 122.631 116.95 122.74 116.462 122.775L115.993 123.145ZM115.929 127H113.356L114.018 125.834H115.929C116.261 125.834 116.538 125.779 116.761 125.67C116.983 125.557 117.149 125.402 117.259 125.207C117.372 125.008 117.429 124.775 117.429 124.51C117.429 124.232 117.38 123.992 117.282 123.789C117.184 123.582 117.03 123.424 116.819 123.314C116.608 123.201 116.333 123.145 115.993 123.145H114.341L114.352 122.072H116.503L116.837 122.477C117.305 122.492 117.69 122.596 117.991 122.787C118.296 122.979 118.522 123.227 118.671 123.531C118.819 123.836 118.893 124.164 118.893 124.516C118.893 125.059 118.774 125.514 118.536 125.881C118.302 126.248 117.964 126.527 117.522 126.719C117.081 126.906 116.55 127 115.929 127ZM122.253 121.867V127H120.841V120.66H122.189L122.253 121.867ZM124.193 120.619L124.181 121.932C124.095 121.916 124.001 121.904 123.9 121.896C123.802 121.889 123.704 121.885 123.607 121.885C123.364 121.885 123.152 121.92 122.968 121.99C122.784 122.057 122.63 122.154 122.505 122.283C122.384 122.408 122.29 122.561 122.224 122.74C122.157 122.92 122.118 123.121 122.107 123.344L121.784 123.367C121.784 122.969 121.823 122.6 121.902 122.26C121.98 121.92 122.097 121.621 122.253 121.363C122.413 121.105 122.613 120.904 122.851 120.76C123.093 120.615 123.372 120.543 123.689 120.543C123.775 120.543 123.866 120.551 123.964 120.566C124.066 120.582 124.142 120.6 124.193 120.619ZM129.041 125.729V122.705C129.041 122.479 129 122.283 128.918 122.119C128.836 121.955 128.711 121.828 128.543 121.738C128.379 121.648 128.171 121.604 127.921 121.604C127.691 121.604 127.492 121.643 127.324 121.721C127.156 121.799 127.025 121.904 126.931 122.037C126.838 122.17 126.791 122.32 126.791 122.488H125.384C125.384 122.238 125.445 121.996 125.566 121.762C125.687 121.527 125.863 121.318 126.093 121.135C126.324 120.951 126.599 120.807 126.92 120.701C127.24 120.596 127.599 120.543 127.998 120.543C128.474 120.543 128.896 120.623 129.263 120.783C129.634 120.943 129.925 121.186 130.136 121.51C130.351 121.83 130.459 122.232 130.459 122.717V125.535C130.459 125.824 130.478 126.084 130.517 126.314C130.56 126.541 130.621 126.738 130.699 126.906V127H129.252C129.185 126.848 129.132 126.654 129.093 126.42C129.058 126.182 129.041 125.951 129.041 125.729ZM129.246 123.145L129.257 124.018H128.244C127.982 124.018 127.752 124.043 127.552 124.094C127.353 124.141 127.187 124.211 127.054 124.305C126.921 124.398 126.822 124.512 126.755 124.645C126.689 124.777 126.656 124.928 126.656 125.096C126.656 125.264 126.695 125.418 126.773 125.559C126.851 125.695 126.964 125.803 127.113 125.881C127.265 125.959 127.449 125.998 127.664 125.998C127.953 125.998 128.205 125.939 128.42 125.822C128.638 125.701 128.81 125.555 128.935 125.383C129.06 125.207 129.127 125.041 129.134 124.885L129.591 125.512C129.545 125.672 129.464 125.844 129.351 126.027C129.238 126.211 129.089 126.387 128.906 126.555C128.726 126.719 128.509 126.854 128.255 126.959C128.005 127.064 127.716 127.117 127.388 127.117C126.974 127.117 126.605 127.035 126.281 126.871C125.957 126.703 125.703 126.479 125.519 126.197C125.336 125.912 125.244 125.59 125.244 125.23C125.244 124.895 125.306 124.598 125.431 124.34C125.56 124.078 125.748 123.859 125.994 123.684C126.244 123.508 126.548 123.375 126.908 123.285C127.267 123.191 127.677 123.145 128.138 123.145H129.246ZM136.092 125.283C136.092 125.143 136.057 125.016 135.986 124.902C135.916 124.785 135.781 124.68 135.582 124.586C135.387 124.492 135.098 124.406 134.715 124.328C134.379 124.254 134.07 124.166 133.789 124.064C133.512 123.959 133.273 123.832 133.074 123.684C132.875 123.535 132.721 123.359 132.611 123.156C132.502 122.953 132.447 122.719 132.447 122.453C132.447 122.195 132.504 121.951 132.617 121.721C132.73 121.49 132.893 121.287 133.104 121.111C133.314 120.936 133.57 120.797 133.871 120.695C134.176 120.594 134.516 120.543 134.891 120.543C135.422 120.543 135.877 120.633 136.256 120.812C136.639 120.988 136.932 121.229 137.135 121.533C137.338 121.834 137.439 122.174 137.439 122.553H136.027C136.027 122.385 135.984 122.229 135.898 122.084C135.816 121.936 135.691 121.816 135.523 121.727C135.355 121.633 135.145 121.586 134.891 121.586C134.648 121.586 134.447 121.625 134.287 121.703C134.131 121.777 134.014 121.875 133.936 121.996C133.861 122.117 133.824 122.25 133.824 122.395C133.824 122.5 133.844 122.596 133.883 122.682C133.926 122.764 133.996 122.84 134.094 122.91C134.191 122.977 134.324 123.039 134.492 123.098C134.664 123.156 134.879 123.213 135.137 123.268C135.621 123.369 136.037 123.5 136.385 123.66C136.736 123.816 137.006 124.02 137.193 124.27C137.381 124.516 137.475 124.828 137.475 125.207C137.475 125.488 137.414 125.746 137.293 125.98C137.176 126.211 137.004 126.412 136.777 126.584C136.551 126.752 136.279 126.883 135.963 126.977C135.65 127.07 135.299 127.117 134.908 127.117C134.334 127.117 133.848 127.016 133.449 126.812C133.051 126.605 132.748 126.342 132.541 126.021C132.338 125.697 132.236 125.361 132.236 125.014H133.602C133.617 125.275 133.689 125.484 133.818 125.641C133.951 125.793 134.115 125.904 134.311 125.975C134.51 126.041 134.715 126.074 134.926 126.074C135.18 126.074 135.393 126.041 135.564 125.975C135.736 125.904 135.867 125.811 135.957 125.693C136.047 125.572 136.092 125.436 136.092 125.283ZM140.823 120.66V127H139.405V120.66H140.823ZM139.311 118.996C139.311 118.781 139.381 118.604 139.522 118.463C139.666 118.318 139.866 118.246 140.12 118.246C140.37 118.246 140.567 118.318 140.711 118.463C140.856 118.604 140.928 118.781 140.928 118.996C140.928 119.207 140.856 119.383 140.711 119.523C140.567 119.664 140.37 119.734 140.12 119.734C139.866 119.734 139.666 119.664 139.522 119.523C139.381 119.383 139.311 119.207 139.311 118.996ZM144.481 118V127H143.063V118H144.481ZM151.617 122.014V127H150.205V120.66H151.535L151.617 122.014ZM151.365 123.596L150.908 123.59C150.912 123.141 150.974 122.729 151.095 122.354C151.22 121.979 151.392 121.656 151.611 121.387C151.834 121.117 152.099 120.91 152.408 120.766C152.716 120.617 153.06 120.543 153.439 120.543C153.744 120.543 154.019 120.586 154.265 120.672C154.515 120.754 154.728 120.889 154.904 121.076C155.084 121.264 155.22 121.508 155.314 121.809C155.408 122.105 155.455 122.471 155.455 122.904V127H154.037V122.898C154.037 122.594 153.992 122.354 153.902 122.178C153.816 121.998 153.689 121.871 153.521 121.797C153.357 121.719 153.152 121.68 152.906 121.68C152.664 121.68 152.447 121.73 152.255 121.832C152.064 121.934 151.902 122.072 151.769 122.248C151.64 122.424 151.541 122.627 151.47 122.857C151.4 123.088 151.365 123.334 151.365 123.596ZM161.07 125.729V122.705C161.07 122.479 161.029 122.283 160.947 122.119C160.865 121.955 160.74 121.828 160.572 121.738C160.408 121.648 160.201 121.604 159.951 121.604C159.721 121.604 159.521 121.643 159.354 121.721C159.186 121.799 159.055 121.904 158.961 122.037C158.867 122.17 158.82 122.32 158.82 122.488H157.414C157.414 122.238 157.475 121.996 157.596 121.762C157.717 121.527 157.893 121.318 158.123 121.135C158.354 120.951 158.629 120.807 158.949 120.701C159.27 120.596 159.629 120.543 160.027 120.543C160.504 120.543 160.926 120.623 161.293 120.783C161.664 120.943 161.955 121.186 162.166 121.51C162.381 121.83 162.488 122.232 162.488 122.717V125.535C162.488 125.824 162.508 126.084 162.547 126.314C162.59 126.541 162.65 126.738 162.729 126.906V127H161.281C161.215 126.848 161.162 126.654 161.123 126.42C161.088 126.182 161.07 125.951 161.07 125.729ZM161.275 123.145L161.287 124.018H160.273C160.012 124.018 159.781 124.043 159.582 124.094C159.383 124.141 159.217 124.211 159.084 124.305C158.951 124.398 158.852 124.512 158.785 124.645C158.719 124.777 158.686 124.928 158.686 125.096C158.686 125.264 158.725 125.418 158.803 125.559C158.881 125.695 158.994 125.803 159.143 125.881C159.295 125.959 159.479 125.998 159.693 125.998C159.982 125.998 160.234 125.939 160.449 125.822C160.668 125.701 160.84 125.555 160.965 125.383C161.09 125.207 161.156 125.041 161.164 124.885L161.621 125.512C161.574 125.672 161.494 125.844 161.381 126.027C161.268 126.211 161.119 126.387 160.936 126.555C160.756 126.719 160.539 126.854 160.285 126.959C160.035 127.064 159.746 127.117 159.418 127.117C159.004 127.117 158.635 127.035 158.311 126.871C157.986 126.703 157.732 126.479 157.549 126.197C157.365 125.912 157.273 125.59 157.273 125.23C157.273 124.895 157.336 124.598 157.461 124.34C157.59 124.078 157.777 123.859 158.023 123.684C158.273 123.508 158.578 123.375 158.938 123.285C159.297 123.191 159.707 123.145 160.168 123.145H161.275ZM168.121 125.283C168.121 125.143 168.086 125.016 168.016 124.902C167.946 124.785 167.811 124.68 167.612 124.586C167.416 124.492 167.127 124.406 166.745 124.328C166.409 124.254 166.1 124.166 165.819 124.064C165.541 123.959 165.303 123.832 165.104 123.684C164.905 123.535 164.75 123.359 164.641 123.156C164.532 122.953 164.477 122.719 164.477 122.453C164.477 122.195 164.534 121.951 164.647 121.721C164.76 121.49 164.922 121.287 165.133 121.111C165.344 120.936 165.6 120.797 165.901 120.695C166.205 120.594 166.545 120.543 166.92 120.543C167.452 120.543 167.907 120.633 168.286 120.812C168.668 120.988 168.961 121.229 169.164 121.533C169.368 121.834 169.469 122.174 169.469 122.553H168.057C168.057 122.385 168.014 122.229 167.928 122.084C167.846 121.936 167.721 121.816 167.553 121.727C167.385 121.633 167.174 121.586 166.92 121.586C166.678 121.586 166.477 121.625 166.317 121.703C166.161 121.777 166.043 121.875 165.965 121.996C165.891 122.117 165.854 122.25 165.854 122.395C165.854 122.5 165.873 122.596 165.912 122.682C165.955 122.764 166.026 122.84 166.123 122.91C166.221 122.977 166.354 123.039 166.522 123.098C166.694 123.156 166.909 123.213 167.166 123.268C167.651 123.369 168.067 123.5 168.414 123.66C168.766 123.816 169.036 124.02 169.223 124.27C169.411 124.516 169.504 124.828 169.504 125.207C169.504 125.488 169.444 125.746 169.323 125.98C169.205 126.211 169.034 126.412 168.807 126.584C168.58 126.752 168.309 126.883 167.993 126.977C167.68 127.07 167.329 127.117 166.938 127.117C166.364 127.117 165.877 127.016 165.479 126.812C165.08 126.605 164.778 126.342 164.571 126.021C164.368 125.697 164.266 125.361 164.266 125.014H165.631C165.647 125.275 165.719 125.484 165.848 125.641C165.981 125.793 166.145 125.904 166.34 125.975C166.539 126.041 166.745 126.074 166.955 126.074C167.209 126.074 167.422 126.041 167.594 125.975C167.766 125.904 167.897 125.811 167.987 125.693C168.077 125.572 168.121 125.436 168.121 125.283ZM177.519 125.992C177.749 125.992 177.956 125.947 178.14 125.857C178.327 125.764 178.478 125.635 178.591 125.471C178.708 125.307 178.773 125.117 178.784 124.902H180.114C180.107 125.312 179.986 125.686 179.751 126.021C179.517 126.357 179.206 126.625 178.82 126.824C178.433 127.02 178.005 127.117 177.536 127.117C177.052 127.117 176.63 127.035 176.271 126.871C175.911 126.703 175.613 126.473 175.374 126.18C175.136 125.887 174.956 125.549 174.835 125.166C174.718 124.783 174.659 124.373 174.659 123.936V123.73C174.659 123.293 174.718 122.883 174.835 122.5C174.956 122.113 175.136 121.773 175.374 121.48C175.613 121.188 175.911 120.959 176.271 120.795C176.63 120.627 177.05 120.543 177.53 120.543C178.038 120.543 178.484 120.645 178.866 120.848C179.249 121.047 179.55 121.326 179.769 121.686C179.991 122.041 180.107 122.455 180.114 122.928H178.784C178.773 122.693 178.714 122.482 178.609 122.295C178.507 122.104 178.363 121.951 178.175 121.838C177.991 121.725 177.771 121.668 177.513 121.668C177.228 121.668 176.991 121.727 176.804 121.844C176.616 121.957 176.47 122.113 176.364 122.312C176.259 122.508 176.183 122.729 176.136 122.975C176.093 123.217 176.071 123.469 176.071 123.73V123.936C176.071 124.197 176.093 124.451 176.136 124.697C176.179 124.943 176.253 125.164 176.359 125.359C176.468 125.551 176.616 125.705 176.804 125.822C176.991 125.936 177.23 125.992 177.519 125.992ZM181.529 123.9V123.766C181.529 123.309 181.595 122.885 181.728 122.494C181.861 122.1 182.052 121.758 182.302 121.469C182.556 121.176 182.865 120.949 183.228 120.789C183.595 120.625 184.009 120.543 184.47 120.543C184.935 120.543 185.349 120.625 185.712 120.789C186.08 120.949 186.39 121.176 186.644 121.469C186.898 121.758 187.091 122.1 187.224 122.494C187.357 122.885 187.423 123.309 187.423 123.766V123.9C187.423 124.357 187.357 124.781 187.224 125.172C187.091 125.562 186.898 125.904 186.644 126.197C186.39 126.486 186.082 126.713 185.718 126.877C185.355 127.037 184.943 127.117 184.482 127.117C184.017 127.117 183.601 127.037 183.234 126.877C182.871 126.713 182.562 126.486 182.308 126.197C182.054 125.904 181.861 125.562 181.728 125.172C181.595 124.781 181.529 124.357 181.529 123.9ZM182.941 123.766V123.9C182.941 124.186 182.97 124.455 183.029 124.709C183.087 124.963 183.179 125.186 183.304 125.377C183.429 125.568 183.589 125.719 183.785 125.828C183.98 125.938 184.212 125.992 184.482 125.992C184.744 125.992 184.97 125.938 185.162 125.828C185.357 125.719 185.517 125.568 185.642 125.377C185.767 125.186 185.859 124.963 185.918 124.709C185.98 124.455 186.011 124.186 186.011 123.9V123.766C186.011 123.484 185.98 123.219 185.918 122.969C185.859 122.715 185.765 122.49 185.636 122.295C185.511 122.1 185.351 121.947 185.156 121.838C184.964 121.725 184.736 121.668 184.47 121.668C184.205 121.668 183.974 121.725 183.779 121.838C183.587 121.947 183.429 122.1 183.304 122.295C183.179 122.49 183.087 122.715 183.029 122.969C182.97 123.219 182.941 123.484 182.941 123.766ZM190.619 121.949V127H189.207V120.66H190.537L190.619 121.949ZM190.391 123.596L189.91 123.59C189.91 123.152 189.965 122.748 190.074 122.377C190.184 122.006 190.344 121.684 190.555 121.41C190.766 121.133 191.027 120.92 191.34 120.771C191.656 120.619 192.021 120.543 192.436 120.543C192.725 120.543 192.988 120.586 193.227 120.672C193.469 120.754 193.678 120.885 193.854 121.064C194.033 121.244 194.17 121.475 194.264 121.756C194.361 122.037 194.41 122.377 194.41 122.775V127H192.998V122.898C192.998 122.59 192.951 122.348 192.857 122.172C192.768 121.996 192.637 121.871 192.465 121.797C192.297 121.719 192.096 121.68 191.861 121.68C191.596 121.68 191.369 121.73 191.182 121.832C190.998 121.934 190.848 122.072 190.73 122.248C190.613 122.424 190.527 122.627 190.473 122.857C190.418 123.088 190.391 123.334 190.391 123.596ZM194.322 123.221L193.66 123.367C193.66 122.984 193.713 122.623 193.818 122.283C193.928 121.939 194.086 121.639 194.293 121.381C194.504 121.119 194.764 120.914 195.072 120.766C195.381 120.617 195.734 120.543 196.133 120.543C196.457 120.543 196.746 120.588 197 120.678C197.258 120.764 197.477 120.9 197.656 121.088C197.836 121.275 197.973 121.52 198.066 121.82C198.16 122.117 198.207 122.477 198.207 122.898V127H196.789V122.893C196.789 122.572 196.742 122.324 196.648 122.148C196.559 121.973 196.43 121.852 196.262 121.785C196.094 121.715 195.893 121.68 195.658 121.68C195.439 121.68 195.246 121.721 195.078 121.803C194.914 121.881 194.775 121.992 194.662 122.137C194.549 122.277 194.463 122.439 194.404 122.623C194.35 122.807 194.322 123.006 194.322 123.221ZM201.678 121.879V129.438H200.266V120.66H201.567L201.678 121.879ZM205.809 123.771V123.895C205.809 124.355 205.754 124.783 205.645 125.178C205.539 125.568 205.381 125.91 205.17 126.203C204.963 126.492 204.707 126.717 204.403 126.877C204.098 127.037 203.746 127.117 203.348 127.117C202.954 127.117 202.608 127.045 202.311 126.9C202.018 126.752 201.77 126.543 201.567 126.273C201.364 126.004 201.2 125.688 201.075 125.324C200.954 124.957 200.868 124.555 200.817 124.117V123.643C200.868 123.178 200.954 122.756 201.075 122.377C201.2 121.998 201.364 121.672 201.567 121.398C201.77 121.125 202.018 120.914 202.311 120.766C202.604 120.617 202.946 120.543 203.336 120.543C203.735 120.543 204.088 120.621 204.397 120.777C204.705 120.93 204.965 121.148 205.176 121.434C205.387 121.715 205.545 122.055 205.651 122.453C205.756 122.848 205.809 123.287 205.809 123.771ZM204.397 123.895V123.771C204.397 123.479 204.37 123.207 204.315 122.957C204.26 122.703 204.174 122.48 204.057 122.289C203.94 122.098 203.789 121.949 203.606 121.844C203.426 121.734 203.209 121.68 202.955 121.68C202.705 121.68 202.491 121.723 202.311 121.809C202.131 121.891 201.981 122.006 201.86 122.154C201.739 122.303 201.645 122.477 201.579 122.676C201.512 122.871 201.465 123.084 201.438 123.314V124.451C201.485 124.732 201.565 124.99 201.678 125.225C201.791 125.459 201.952 125.646 202.159 125.787C202.37 125.924 202.639 125.992 202.967 125.992C203.221 125.992 203.438 125.938 203.618 125.828C203.797 125.719 203.944 125.568 204.057 125.377C204.174 125.182 204.26 124.957 204.315 124.703C204.37 124.449 204.397 124.18 204.397 123.895ZM209.028 121.867V127H207.616V120.66H208.964L209.028 121.867ZM210.968 120.619L210.956 121.932C210.87 121.916 210.776 121.904 210.675 121.896C210.577 121.889 210.479 121.885 210.382 121.885C210.139 121.885 209.927 121.92 209.743 121.99C209.559 122.057 209.405 122.154 209.28 122.283C209.159 122.408 209.065 122.561 208.999 122.74C208.932 122.92 208.893 123.121 208.882 123.344L208.559 123.367C208.559 122.969 208.598 122.6 208.677 122.26C208.755 121.92 208.872 121.621 209.028 121.363C209.188 121.105 209.387 120.904 209.626 120.76C209.868 120.615 210.147 120.543 210.464 120.543C210.55 120.543 210.641 120.551 210.739 120.566C210.841 120.582 210.917 120.6 210.968 120.619ZM215.816 125.729V122.705C215.816 122.479 215.775 122.283 215.693 122.119C215.611 121.955 215.486 121.828 215.318 121.738C215.154 121.648 214.946 121.604 214.696 121.604C214.466 121.604 214.267 121.643 214.099 121.721C213.931 121.799 213.8 121.904 213.706 122.037C213.613 122.17 213.566 122.32 213.566 122.488H212.159C212.159 122.238 212.22 121.996 212.341 121.762C212.462 121.527 212.638 121.318 212.868 121.135C213.099 120.951 213.374 120.807 213.695 120.701C214.015 120.596 214.374 120.543 214.773 120.543C215.249 120.543 215.671 120.623 216.038 120.783C216.409 120.943 216.7 121.186 216.911 121.51C217.126 121.83 217.234 122.232 217.234 122.717V125.535C217.234 125.824 217.253 126.084 217.292 126.314C217.335 126.541 217.396 126.738 217.474 126.906V127H216.027C215.96 126.848 215.907 126.654 215.868 126.42C215.833 126.182 215.816 125.951 215.816 125.729ZM216.021 123.145L216.032 124.018H215.019C214.757 124.018 214.527 124.043 214.327 124.094C214.128 124.141 213.962 124.211 213.829 124.305C213.696 124.398 213.597 124.512 213.53 124.645C213.464 124.777 213.431 124.928 213.431 125.096C213.431 125.264 213.47 125.418 213.548 125.559C213.626 125.695 213.739 125.803 213.888 125.881C214.04 125.959 214.224 125.998 214.439 125.998C214.728 125.998 214.98 125.939 215.195 125.822C215.413 125.701 215.585 125.555 215.71 125.383C215.835 125.207 215.902 125.041 215.909 124.885L216.366 125.512C216.32 125.672 216.239 125.844 216.126 126.027C216.013 126.211 215.864 126.387 215.681 126.555C215.501 126.719 215.284 126.854 215.03 126.959C214.78 127.064 214.491 127.117 214.163 127.117C213.749 127.117 213.38 127.035 213.056 126.871C212.732 126.703 212.478 126.479 212.294 126.197C212.111 125.912 212.019 125.59 212.019 125.23C212.019 124.895 212.081 124.598 212.206 124.34C212.335 124.078 212.523 123.859 212.769 123.684C213.019 123.508 213.323 123.375 213.683 123.285C214.042 123.191 214.452 123.145 214.913 123.145H216.021ZM222.867 125.283C222.867 125.143 222.832 125.016 222.761 124.902C222.691 124.785 222.556 124.68 222.357 124.586C222.162 124.492 221.873 124.406 221.49 124.328C221.154 124.254 220.845 124.166 220.564 124.064C220.287 123.959 220.048 123.832 219.849 123.684C219.65 123.535 219.496 123.359 219.386 123.156C219.277 122.953 219.222 122.719 219.222 122.453C219.222 122.195 219.279 121.951 219.392 121.721C219.505 121.49 219.668 121.287 219.879 121.111C220.089 120.936 220.345 120.797 220.646 120.695C220.951 120.594 221.291 120.543 221.666 120.543C222.197 120.543 222.652 120.633 223.031 120.812C223.414 120.988 223.707 121.229 223.91 121.533C224.113 121.834 224.214 122.174 224.214 122.553H222.802C222.802 122.385 222.759 122.229 222.673 122.084C222.591 121.936 222.466 121.816 222.298 121.727C222.13 121.633 221.92 121.586 221.666 121.586C221.423 121.586 221.222 121.625 221.062 121.703C220.906 121.777 220.789 121.875 220.711 121.996C220.636 122.117 220.599 122.25 220.599 122.395C220.599 122.5 220.619 122.596 220.658 122.682C220.701 122.764 220.771 122.84 220.869 122.91C220.966 122.977 221.099 123.039 221.267 123.098C221.439 123.156 221.654 123.213 221.912 123.268C222.396 123.369 222.812 123.5 223.16 123.66C223.511 123.816 223.781 124.02 223.968 124.27C224.156 124.516 224.25 124.828 224.25 125.207C224.25 125.488 224.189 125.746 224.068 125.98C223.951 126.211 223.779 126.412 223.552 126.584C223.326 126.752 223.054 126.883 222.738 126.977C222.425 127.07 222.074 127.117 221.683 127.117C221.109 127.117 220.623 127.016 220.224 126.812C219.826 126.605 219.523 126.342 219.316 126.021C219.113 125.697 219.011 125.361 219.011 125.014H220.377C220.392 125.275 220.464 125.484 220.593 125.641C220.726 125.793 220.89 125.904 221.086 125.975C221.285 126.041 221.49 126.074 221.701 126.074C221.955 126.074 222.168 126.041 222.339 125.975C222.511 125.904 222.642 125.811 222.732 125.693C222.822 125.572 222.867 125.436 222.867 125.283ZM233.248 125.729V122.705C233.248 122.479 233.207 122.283 233.125 122.119C233.043 121.955 232.918 121.828 232.75 121.738C232.586 121.648 232.379 121.604 232.129 121.604C231.899 121.604 231.7 121.643 231.532 121.721C231.364 121.799 231.233 121.904 231.139 122.037C231.045 122.17 230.998 122.32 230.998 122.488H229.592C229.592 122.238 229.653 121.996 229.774 121.762C229.895 121.527 230.071 121.318 230.301 121.135C230.532 120.951 230.807 120.807 231.127 120.701C231.448 120.596 231.807 120.543 232.205 120.543C232.682 120.543 233.104 120.623 233.471 120.783C233.842 120.943 234.133 121.186 234.344 121.51C234.559 121.83 234.666 122.232 234.666 122.717V125.535C234.666 125.824 234.686 126.084 234.725 126.314C234.768 126.541 234.829 126.738 234.907 126.906V127H233.459C233.393 126.848 233.34 126.654 233.301 126.42C233.266 126.182 233.248 125.951 233.248 125.729ZM233.454 123.145L233.465 124.018H232.452C232.19 124.018 231.959 124.043 231.76 124.094C231.561 124.141 231.395 124.211 231.262 124.305C231.129 124.398 231.03 124.512 230.963 124.645C230.897 124.777 230.864 124.928 230.864 125.096C230.864 125.264 230.903 125.418 230.981 125.559C231.059 125.695 231.172 125.803 231.321 125.881C231.473 125.959 231.657 125.998 231.871 125.998C232.161 125.998 232.413 125.939 232.627 125.822C232.846 125.701 233.018 125.555 233.143 125.383C233.268 125.207 233.334 125.041 233.342 124.885L233.799 125.512C233.752 125.672 233.672 125.844 233.559 126.027C233.446 126.211 233.297 126.387 233.114 126.555C232.934 126.719 232.717 126.854 232.463 126.959C232.213 127.064 231.924 127.117 231.596 127.117C231.182 127.117 230.813 127.035 230.489 126.871C230.164 126.703 229.911 126.479 229.727 126.197C229.543 125.912 229.452 125.59 229.452 125.23C229.452 124.895 229.514 124.598 229.639 124.34C229.768 124.078 229.955 123.859 230.202 123.684C230.452 123.508 230.756 123.375 231.116 123.285C231.475 123.191 231.885 123.145 232.346 123.145H233.454ZM239.333 125.992C239.563 125.992 239.77 125.947 239.954 125.857C240.141 125.764 240.292 125.635 240.405 125.471C240.522 125.307 240.587 125.117 240.598 124.902H241.929C241.921 125.312 241.8 125.686 241.565 126.021C241.331 126.357 241.02 126.625 240.634 126.824C240.247 127.02 239.819 127.117 239.35 127.117C238.866 127.117 238.444 127.035 238.085 126.871C237.725 126.703 237.427 126.473 237.188 126.18C236.95 125.887 236.77 125.549 236.649 125.166C236.532 124.783 236.473 124.373 236.473 123.936V123.73C236.473 123.293 236.532 122.883 236.649 122.5C236.77 122.113 236.95 121.773 237.188 121.48C237.427 121.188 237.725 120.959 238.085 120.795C238.444 120.627 238.864 120.543 239.345 120.543C239.852 120.543 240.298 120.645 240.68 120.848C241.063 121.047 241.364 121.326 241.583 121.686C241.805 122.041 241.921 122.455 241.929 122.928H240.598C240.587 122.693 240.528 122.482 240.423 122.295C240.321 122.104 240.177 121.951 239.989 121.838C239.805 121.725 239.585 121.668 239.327 121.668C239.042 121.668 238.805 121.727 238.618 121.844C238.43 121.957 238.284 122.113 238.179 122.312C238.073 122.508 237.997 122.729 237.95 122.975C237.907 123.217 237.886 123.469 237.886 123.73V123.936C237.886 124.197 237.907 124.451 237.95 124.697C237.993 124.943 238.067 125.164 238.173 125.359C238.282 125.551 238.43 125.705 238.618 125.822C238.805 125.936 239.044 125.992 239.333 125.992ZM245.124 120.66V127H243.706V120.66H245.124ZM243.613 118.996C243.613 118.781 243.683 118.604 243.823 118.463C243.968 118.318 244.167 118.246 244.421 118.246C244.671 118.246 244.868 118.318 245.013 118.463C245.157 118.604 245.23 118.781 245.23 118.996C245.23 119.207 245.157 119.383 245.013 119.523C244.868 119.664 244.671 119.734 244.421 119.734C244.167 119.734 243.968 119.664 243.823 119.523C243.683 119.383 243.613 119.207 243.613 118.996ZM248.683 121.949V127H247.271V120.66H248.601L248.683 121.949ZM248.455 123.596L247.974 123.59C247.974 123.152 248.029 122.748 248.138 122.377C248.248 122.006 248.408 121.684 248.619 121.41C248.83 121.133 249.091 120.92 249.404 120.771C249.72 120.619 250.086 120.543 250.5 120.543C250.789 120.543 251.052 120.586 251.291 120.672C251.533 120.754 251.742 120.885 251.918 121.064C252.097 121.244 252.234 121.475 252.328 121.756C252.425 122.037 252.474 122.377 252.474 122.775V127H251.062V122.898C251.062 122.59 251.015 122.348 250.921 122.172C250.832 121.996 250.701 121.871 250.529 121.797C250.361 121.719 250.16 121.68 249.925 121.68C249.66 121.68 249.433 121.73 249.246 121.832C249.062 121.934 248.912 122.072 248.795 122.248C248.677 122.424 248.591 122.627 248.537 122.857C248.482 123.088 248.455 123.334 248.455 123.596ZM252.386 123.221L251.724 123.367C251.724 122.984 251.777 122.623 251.882 122.283C251.992 121.939 252.15 121.639 252.357 121.381C252.568 121.119 252.828 120.914 253.136 120.766C253.445 120.617 253.798 120.543 254.197 120.543C254.521 120.543 254.81 120.588 255.064 120.678C255.322 120.764 255.541 120.9 255.72 121.088C255.9 121.275 256.037 121.52 256.13 121.82C256.224 122.117 256.271 122.477 256.271 122.898V127H254.853V122.893C254.853 122.572 254.806 122.324 254.712 122.148C254.623 121.973 254.494 121.852 254.326 121.785C254.158 121.715 253.957 121.68 253.722 121.68C253.504 121.68 253.31 121.721 253.142 121.803C252.978 121.881 252.839 121.992 252.726 122.137C252.613 122.277 252.527 122.439 252.468 122.623C252.414 122.807 252.386 123.006 252.386 123.221ZM261.898 125.729V122.705C261.898 122.479 261.857 122.283 261.775 122.119C261.693 121.955 261.568 121.828 261.4 121.738C261.236 121.648 261.029 121.604 260.779 121.604C260.549 121.604 260.35 121.643 260.182 121.721C260.014 121.799 259.883 121.904 259.789 122.037C259.695 122.17 259.648 122.32 259.648 122.488H258.242C258.242 122.238 258.303 121.996 258.424 121.762C258.545 121.527 258.721 121.318 258.951 121.135C259.182 120.951 259.457 120.807 259.777 120.701C260.098 120.596 260.457 120.543 260.855 120.543C261.332 120.543 261.754 120.623 262.121 120.783C262.492 120.943 262.783 121.186 262.994 121.51C263.209 121.83 263.316 122.232 263.316 122.717V125.535C263.316 125.824 263.336 126.084 263.375 126.314C263.418 126.541 263.479 126.738 263.557 126.906V127H262.109C262.043 126.848 261.99 126.654 261.951 126.42C261.916 126.182 261.898 125.951 261.898 125.729ZM262.104 123.145L262.115 124.018H261.102C260.84 124.018 260.609 124.043 260.41 124.094C260.211 124.141 260.045 124.211 259.912 124.305C259.779 124.398 259.68 124.512 259.613 124.645C259.547 124.777 259.514 124.928 259.514 125.096C259.514 125.264 259.553 125.418 259.631 125.559C259.709 125.695 259.822 125.803 259.971 125.881C260.123 125.959 260.307 125.998 260.521 125.998C260.811 125.998 261.062 125.939 261.277 125.822C261.496 125.701 261.668 125.555 261.793 125.383C261.918 125.207 261.984 125.041 261.992 124.885L262.449 125.512C262.402 125.672 262.322 125.844 262.209 126.027C262.096 126.211 261.947 126.387 261.764 126.555C261.584 126.719 261.367 126.854 261.113 126.959C260.863 127.064 260.574 127.117 260.246 127.117C259.832 127.117 259.463 127.035 259.139 126.871C258.814 126.703 258.561 126.479 258.377 126.197C258.193 125.912 258.102 125.59 258.102 125.23C258.102 124.895 258.164 124.598 258.289 124.34C258.418 124.078 258.605 123.859 258.852 123.684C259.102 123.508 259.406 123.375 259.766 123.285C260.125 123.191 260.535 123.145 260.996 123.145H262.104ZM272.848 125.688V118H274.266V127H272.983L272.848 125.688ZM268.723 123.9V123.777C268.723 123.297 268.78 122.859 268.893 122.465C269.007 122.066 269.171 121.725 269.386 121.439C269.6 121.15 269.862 120.93 270.171 120.777C270.479 120.621 270.827 120.543 271.214 120.543C271.596 120.543 271.932 120.617 272.221 120.766C272.511 120.914 272.757 121.127 272.96 121.404C273.163 121.678 273.325 122.006 273.446 122.389C273.567 122.768 273.653 123.189 273.704 123.654V124.047C273.653 124.5 273.567 124.914 273.446 125.289C273.325 125.664 273.163 125.988 272.96 126.262C272.757 126.535 272.509 126.746 272.216 126.895C271.927 127.043 271.589 127.117 271.202 127.117C270.819 127.117 270.473 127.037 270.165 126.877C269.86 126.717 269.6 126.492 269.386 126.203C269.171 125.914 269.007 125.574 268.893 125.184C268.78 124.789 268.723 124.361 268.723 123.9ZM270.136 123.777V123.9C270.136 124.189 270.161 124.459 270.212 124.709C270.266 124.959 270.35 125.18 270.464 125.371C270.577 125.559 270.723 125.707 270.903 125.816C271.087 125.922 271.305 125.975 271.559 125.975C271.88 125.975 272.143 125.904 272.35 125.764C272.557 125.623 272.72 125.434 272.837 125.195C272.958 124.953 273.04 124.684 273.083 124.387V123.326C273.059 123.096 273.011 122.881 272.936 122.682C272.866 122.482 272.77 122.309 272.649 122.16C272.528 122.008 272.378 121.891 272.198 121.809C272.022 121.723 271.813 121.68 271.571 121.68C271.313 121.68 271.095 121.734 270.915 121.844C270.735 121.953 270.587 122.104 270.47 122.295C270.356 122.486 270.272 122.709 270.218 122.963C270.163 123.217 270.136 123.488 270.136 123.777ZM279.138 127.117C278.669 127.117 278.245 127.041 277.866 126.889C277.491 126.732 277.171 126.516 276.905 126.238C276.644 125.961 276.443 125.635 276.302 125.26C276.161 124.885 276.091 124.48 276.091 124.047V123.812C276.091 123.316 276.163 122.867 276.308 122.465C276.452 122.062 276.654 121.719 276.911 121.434C277.169 121.145 277.474 120.924 277.825 120.771C278.177 120.619 278.558 120.543 278.968 120.543C279.421 120.543 279.818 120.619 280.157 120.771C280.497 120.924 280.779 121.139 281.001 121.416C281.228 121.689 281.396 122.016 281.505 122.395C281.618 122.773 281.675 123.191 281.675 123.648V124.252H276.777V123.238H280.28V123.127C280.273 122.873 280.222 122.635 280.128 122.412C280.038 122.189 279.9 122.01 279.712 121.873C279.525 121.736 279.275 121.668 278.962 121.668C278.728 121.668 278.519 121.719 278.335 121.82C278.155 121.918 278.005 122.061 277.884 122.248C277.763 122.436 277.669 122.662 277.603 122.928C277.54 123.189 277.509 123.484 277.509 123.812V124.047C277.509 124.324 277.546 124.582 277.62 124.82C277.698 125.055 277.812 125.26 277.96 125.436C278.109 125.611 278.288 125.75 278.499 125.852C278.71 125.949 278.95 125.998 279.22 125.998C279.56 125.998 279.863 125.93 280.128 125.793C280.394 125.656 280.624 125.463 280.82 125.213L281.564 125.934C281.427 126.133 281.249 126.324 281.03 126.508C280.812 126.688 280.544 126.834 280.228 126.947C279.915 127.061 279.552 127.117 279.138 127.117ZM287.105 118.469H290.123C290.771 118.469 291.324 118.566 291.781 118.762C292.238 118.957 292.588 119.246 292.83 119.629C293.076 120.008 293.199 120.477 293.199 121.035C293.199 121.461 293.121 121.836 292.965 122.16C292.809 122.484 292.588 122.758 292.303 122.98C292.018 123.199 291.678 123.369 291.283 123.49L290.838 123.707H288.125L288.113 122.541H290.146C290.498 122.541 290.791 122.479 291.025 122.354C291.26 122.229 291.436 122.059 291.553 121.844C291.674 121.625 291.734 121.379 291.734 121.105C291.734 120.809 291.676 120.551 291.559 120.332C291.445 120.109 291.27 119.939 291.031 119.822C290.793 119.701 290.49 119.641 290.123 119.641H288.576V127H287.105V118.469ZM291.975 127L289.971 123.168L291.512 123.162L293.545 126.924V127H291.975ZM298.434 117.104V118.855H297.532V117.104H298.434ZM298.323 126.672V128.242H297.426V126.672H298.323ZM299.207 124.779C299.207 124.553 299.161 124.355 299.067 124.188C298.977 124.016 298.829 123.861 298.621 123.725C298.414 123.584 298.137 123.453 297.789 123.332C297.289 123.156 296.852 122.959 296.477 122.74C296.106 122.518 295.817 122.244 295.61 121.92C295.407 121.592 295.305 121.184 295.305 120.695C295.305 120.215 295.414 119.799 295.633 119.447C295.856 119.096 296.164 118.824 296.559 118.633C296.954 118.441 297.414 118.346 297.942 118.346C298.348 118.346 298.713 118.406 299.038 118.527C299.366 118.648 299.645 118.826 299.875 119.061C300.106 119.295 300.282 119.584 300.403 119.928C300.528 120.268 300.59 120.658 300.59 121.1H299.184C299.184 120.85 299.155 120.627 299.096 120.432C299.041 120.232 298.959 120.064 298.85 119.928C298.741 119.787 298.608 119.68 298.452 119.605C298.299 119.531 298.125 119.494 297.93 119.494C297.653 119.494 297.424 119.547 297.245 119.652C297.065 119.754 296.932 119.895 296.846 120.074C296.764 120.254 296.723 120.459 296.723 120.689C296.723 120.912 296.766 121.107 296.852 121.275C296.938 121.443 297.084 121.596 297.291 121.732C297.502 121.865 297.791 122 298.159 122.137C298.663 122.316 299.098 122.518 299.465 122.74C299.836 122.959 300.121 123.23 300.321 123.555C300.524 123.875 300.625 124.279 300.625 124.768C300.625 125.271 300.508 125.699 300.274 126.051C300.043 126.402 299.719 126.67 299.301 126.854C298.887 127.033 298.405 127.123 297.854 127.123C297.506 127.123 297.161 127.078 296.817 126.988C296.477 126.895 296.168 126.742 295.891 126.531C295.614 126.32 295.393 126.041 295.229 125.693C295.065 125.342 294.983 124.912 294.983 124.404H296.401C296.401 124.709 296.442 124.963 296.524 125.166C296.606 125.369 296.717 125.529 296.858 125.646C296.998 125.764 297.155 125.848 297.327 125.898C297.502 125.949 297.678 125.975 297.854 125.975C298.147 125.975 298.393 125.926 298.592 125.828C298.795 125.727 298.948 125.586 299.049 125.406C299.155 125.223 299.207 125.014 299.207 124.779ZM303.598 125.887H303.716C304.255 125.887 304.704 125.816 305.063 125.676C305.427 125.531 305.716 125.332 305.93 125.078C306.145 124.824 306.3 124.525 306.393 124.182C306.487 123.838 306.534 123.465 306.534 123.062V121.592C306.534 121.244 306.497 120.939 306.423 120.678C306.352 120.412 306.251 120.191 306.118 120.016C305.989 119.836 305.839 119.701 305.667 119.611C305.499 119.521 305.317 119.477 305.122 119.477C304.907 119.477 304.714 119.525 304.542 119.623C304.374 119.717 304.231 119.848 304.114 120.016C304.001 120.18 303.913 120.373 303.85 120.596C303.792 120.814 303.763 121.049 303.763 121.299C303.763 121.533 303.79 121.76 303.845 121.979C303.903 122.193 303.989 122.385 304.102 122.553C304.216 122.721 304.358 122.854 304.53 122.951C304.702 123.049 304.903 123.098 305.134 123.098C305.352 123.098 305.554 123.057 305.737 122.975C305.921 122.889 306.081 122.773 306.218 122.629C306.354 122.484 306.462 122.322 306.54 122.143C306.618 121.963 306.661 121.779 306.669 121.592L307.208 121.756C307.208 122.053 307.145 122.346 307.02 122.635C306.899 122.92 306.729 123.182 306.511 123.42C306.296 123.654 306.044 123.842 305.755 123.982C305.47 124.123 305.159 124.193 304.823 124.193C304.417 124.193 304.057 124.117 303.745 123.965C303.436 123.809 303.179 123.598 302.971 123.332C302.768 123.066 302.616 122.762 302.514 122.418C302.413 122.074 302.362 121.713 302.362 121.334C302.362 120.924 302.425 120.539 302.55 120.18C302.675 119.82 302.856 119.504 303.095 119.23C303.333 118.953 303.622 118.738 303.962 118.586C304.305 118.43 304.694 118.352 305.128 118.352C305.589 118.352 305.993 118.441 306.341 118.621C306.688 118.801 306.981 119.049 307.22 119.365C307.458 119.682 307.638 120.049 307.759 120.467C307.88 120.885 307.94 121.334 307.94 121.814V122.312C307.94 122.816 307.895 123.303 307.805 123.771C307.716 124.236 307.569 124.668 307.366 125.066C307.167 125.461 306.903 125.809 306.575 126.109C306.251 126.406 305.852 126.639 305.38 126.807C304.911 126.971 304.36 127.053 303.727 127.053H303.598V125.887ZM311.019 125.887H311.136C311.675 125.887 312.124 125.816 312.484 125.676C312.847 125.531 313.136 125.332 313.351 125.078C313.566 124.824 313.72 124.525 313.814 124.182C313.907 123.838 313.954 123.465 313.954 123.062V121.592C313.954 121.244 313.917 120.939 313.843 120.678C313.773 120.412 313.671 120.191 313.538 120.016C313.409 119.836 313.259 119.701 313.087 119.611C312.919 119.521 312.737 119.477 312.542 119.477C312.327 119.477 312.134 119.525 311.962 119.623C311.794 119.717 311.652 119.848 311.534 120.016C311.421 120.18 311.333 120.373 311.271 120.596C311.212 120.814 311.183 121.049 311.183 121.299C311.183 121.533 311.21 121.76 311.265 121.979C311.323 122.193 311.409 122.385 311.523 122.553C311.636 122.721 311.779 122.854 311.95 122.951C312.122 123.049 312.323 123.098 312.554 123.098C312.773 123.098 312.974 123.057 313.157 122.975C313.341 122.889 313.501 122.773 313.638 122.629C313.775 122.484 313.882 122.322 313.96 122.143C314.038 121.963 314.081 121.779 314.089 121.592L314.628 121.756C314.628 122.053 314.566 122.346 314.441 122.635C314.32 122.92 314.15 123.182 313.931 123.42C313.716 123.654 313.464 123.842 313.175 123.982C312.89 124.123 312.579 124.193 312.243 124.193C311.837 124.193 311.478 124.117 311.165 123.965C310.857 123.809 310.599 123.598 310.392 123.332C310.189 123.066 310.036 122.762 309.935 122.418C309.833 122.074 309.782 121.713 309.782 121.334C309.782 120.924 309.845 120.539 309.97 120.18C310.095 119.82 310.277 119.504 310.515 119.23C310.753 118.953 311.042 118.738 311.382 118.586C311.726 118.43 312.114 118.352 312.548 118.352C313.009 118.352 313.413 118.441 313.761 118.621C314.109 118.801 314.402 119.049 314.64 119.365C314.878 119.682 315.058 120.049 315.179 120.467C315.3 120.885 315.361 121.334 315.361 121.814V122.312C315.361 122.816 315.316 123.303 315.226 123.771C315.136 124.236 314.989 124.668 314.786 125.066C314.587 125.461 314.323 125.809 313.995 126.109C313.671 126.406 313.273 126.639 312.8 126.807C312.331 126.971 311.78 127.053 311.148 127.053H311.019V125.887ZM318.709 125.641L318.703 126.648C318.703 127.047 318.603 127.457 318.404 127.879C318.205 128.301 317.941 128.648 317.613 128.922L316.857 128.482C316.966 128.307 317.066 128.129 317.156 127.949C317.246 127.77 317.318 127.578 317.373 127.375C317.427 127.172 317.455 126.947 317.455 126.701V125.641H318.709ZM326.146 122.02V123.414C326.146 124.082 326.08 124.652 325.947 125.125C325.818 125.594 325.631 125.975 325.385 126.268C325.139 126.561 324.844 126.775 324.5 126.912C324.16 127.049 323.779 127.117 323.357 127.117C323.021 127.117 322.709 127.074 322.42 126.988C322.135 126.902 321.877 126.768 321.646 126.584C321.416 126.4 321.219 126.164 321.055 125.875C320.895 125.582 320.77 125.232 320.68 124.826C320.594 124.42 320.551 123.949 320.551 123.414V122.02C320.551 121.348 320.617 120.781 320.75 120.32C320.883 119.855 321.072 119.479 321.318 119.189C321.564 118.896 321.857 118.684 322.197 118.551C322.541 118.418 322.924 118.352 323.346 118.352C323.686 118.352 323.998 118.395 324.283 118.48C324.572 118.562 324.83 118.693 325.057 118.873C325.287 119.053 325.482 119.287 325.643 119.576C325.807 119.861 325.932 120.207 326.018 120.613C326.104 121.016 326.146 121.484 326.146 122.02ZM324.734 123.613V121.809C324.734 121.469 324.715 121.17 324.676 120.912C324.637 120.65 324.578 120.43 324.5 120.25C324.426 120.066 324.332 119.918 324.219 119.805C324.105 119.688 323.977 119.604 323.832 119.553C323.688 119.498 323.525 119.471 323.346 119.471C323.127 119.471 322.932 119.514 322.76 119.6C322.588 119.682 322.443 119.814 322.326 119.998C322.209 120.182 322.119 120.424 322.057 120.725C321.998 121.021 321.969 121.383 321.969 121.809V123.613C321.969 123.957 321.988 124.26 322.027 124.521C322.066 124.783 322.125 125.008 322.203 125.195C322.281 125.379 322.375 125.531 322.484 125.652C322.598 125.77 322.727 125.855 322.871 125.91C323.02 125.965 323.182 125.992 323.357 125.992C323.58 125.992 323.777 125.949 323.949 125.863C324.121 125.777 324.266 125.641 324.383 125.453C324.5 125.262 324.588 125.014 324.646 124.709C324.705 124.404 324.734 124.039 324.734 123.613ZM333.567 122.02V123.414C333.567 124.082 333.5 124.652 333.368 125.125C333.239 125.594 333.051 125.975 332.805 126.268C332.559 126.561 332.264 126.775 331.92 126.912C331.58 127.049 331.2 127.117 330.778 127.117C330.442 127.117 330.129 127.074 329.84 126.988C329.555 126.902 329.297 126.768 329.067 126.584C328.836 126.4 328.639 126.164 328.475 125.875C328.315 125.582 328.19 125.232 328.1 124.826C328.014 124.42 327.971 123.949 327.971 123.414V122.02C327.971 121.348 328.038 120.781 328.17 120.32C328.303 119.855 328.493 119.479 328.739 119.189C328.985 118.896 329.278 118.684 329.618 118.551C329.961 118.418 330.344 118.352 330.766 118.352C331.106 118.352 331.418 118.395 331.704 118.48C331.993 118.562 332.25 118.693 332.477 118.873C332.707 119.053 332.903 119.287 333.063 119.576C333.227 119.861 333.352 120.207 333.438 120.613C333.524 121.016 333.567 121.484 333.567 122.02ZM332.155 123.613V121.809C332.155 121.469 332.135 121.17 332.096 120.912C332.057 120.65 331.998 120.43 331.92 120.25C331.846 120.066 331.752 119.918 331.639 119.805C331.526 119.688 331.397 119.604 331.252 119.553C331.108 119.498 330.946 119.471 330.766 119.471C330.547 119.471 330.352 119.514 330.18 119.6C330.008 119.682 329.864 119.814 329.746 119.998C329.629 120.182 329.539 120.424 329.477 120.725C329.418 121.021 329.389 121.383 329.389 121.809V123.613C329.389 123.957 329.409 124.26 329.448 124.521C329.487 124.783 329.545 125.008 329.623 125.195C329.702 125.379 329.795 125.531 329.905 125.652C330.018 125.77 330.147 125.855 330.291 125.91C330.44 125.965 330.602 125.992 330.778 125.992C331 125.992 331.198 125.949 331.37 125.863C331.541 125.777 331.686 125.641 331.803 125.453C331.92 125.262 332.008 125.014 332.067 124.709C332.125 124.404 332.155 124.039 332.155 123.613Z" fill="white"/>
<defs>
<filter id="filter0_d_42_2" x="72.3125" y="71.1406" width="229.038" height="33.1719" filterUnits="userSpaceOnUse" color-interpolation-filters="sRGB">
<feFlood flood-opacity="0" result="BackgroundImageFix"/>
<feColorMatrix in="SourceAlpha" type="matrix" values="0 0 0 0 0 0 0 0 0 0 0 0 0 0 0 0 0 0 127 0" result="hardAlpha"/>
<feOffset dy="2"/>
<feGaussianBlur stdDeviation="1"/>
<feComposite in2="hardAlpha" operator="out"/>
<feColorMatrix type="matrix" values="0 0 0 0 0 0 0 0 0 0 0 0 0 0 0 0 0 0 0.25 0"/>
<feBlend mode="normal" in2="BackgroundImageFix" result="effect1_dropShadow_42_2"/>
<feBlend mode="normal" in="SourceGraphic" in2="effect1_dropShadow_42_2" result="shape"/>
</filter>
</defs>
</svg>
